<?xml version="1.0" encoding="UTF-8"?>
<svg width="24" height="24" viewBox="0 0 24 24" fill="none" xmlns="http://www.w3.org/2000/svg">
    <circle cx="12" cy="12" r="10" fill="#0D9488"/>
    <path d="M8 10C8 9.44772 8.44772 9 9 9H15C15.5523 9 16 9.44772 16 10V14C16 14.5523 15.5523 15 15 15H9C8.44772 15 8 14.5523 8 14V10Z" fill="white"/>
    <circle cx="10" cy="11" r="1" fill="#0D9488"/>
    <circle cx="14" cy="11" r="1" fill="#0D9488"/>
    <path d="M7 17C7 16.4477 7.44772 16 8 16H16C16.5523 16 17 16.4477 17 17V17C17 17.5523 16.5523 18 16 18H8C7.44772 18 7 17.5523 7 17V17Z" fill="white"/>
</svg> 